<svg xmlns="http://www.w3.org/2000/svg" viewBox="0 0 1200 900" font-family="system-ui, -apple-system, sans-serif">
  <defs>
    <linearGradient id="headerGrad" x1="0%" y1="0%" x2="100%" y2="0%">
      <stop offset="0%" style="stop-color:#E60000;stop-opacity:1" />
      <stop offset="100%" style="stop-color:#ff4d4d;stop-opacity:1" />
    </linearGradient>
    <linearGradient id="componentGrad" x1="0%" y1="0%" x2="0%" y2="100%">
      <stop offset="0%" style="stop-color:#ffffff;stop-opacity:1" />
      <stop offset="100%" style="stop-color:#f8f9fa;stop-opacity:1" />
    </linearGradient>
    <filter id="shadow" x="-20%" y="-20%" width="140%" height="140%">
      <feDropShadow dx="2" dy="2" stdDeviation="3" flood-opacity="0.15"/>
    </filter>
    <marker id="arrowhead" markerWidth="10" markerHeight="7" refX="9" refY="3.5" orient="auto">
      <polygon points="0 0, 10 3.5, 0 7" fill="#666"/>
    </marker>
  </defs>

  <!-- Background -->
  <rect width="1200" height="900" fill="#fafafa"/>

  <!-- Title -->
  <text x="600" y="40" text-anchor="middle" font-size="24" font-weight="bold" fill="#1a1a1a">Open Telco Website Architecture</text>
  <text x="600" y="62" text-anchor="middle" font-size="12" fill="#666">Docusaurus + React + Recharts</text>

  <!-- FRONTEND SECTION -->
  <rect x="30" y="80" width="750" height="780" rx="12" fill="#fff" stroke="#e0e0e0" stroke-width="1" filter="url(#shadow)"/>
  <rect x="30" y="80" width="750" height="40" rx="12" fill="url(#headerGrad)"/>
  <rect x="30" y="108" width="750" height="12" fill="url(#headerGrad)"/>
  <text x="55" y="106" font-size="14" font-weight="600" fill="#fff">FRONTEND (Client-Side)</text>

  <!-- Navigation Layer -->
  <rect x="50" y="135" width="710" height="70" rx="8" fill="url(#componentGrad)" stroke="#e0e0e0"/>
  <text x="70" y="155" font-size="11" font-weight="600" fill="#666">NAVIGATION (docusaurus.config.ts)</text>

  <rect x="70" y="165" width="80" height="28" rx="4" fill="#E60000" opacity="0.1" stroke="#E60000"/>
  <text x="110" y="183" text-anchor="middle" font-size="10" fill="#E60000">Research</text>

  <rect x="160" y="165" width="80" height="28" rx="4" fill="#f5f5f5" stroke="#ddd"/>
  <text x="200" y="183" text-anchor="middle" font-size="10" fill="#555">Leaderboard</text>

  <rect x="250" y="165" width="80" height="28" rx="4" fill="#f5f5f5" stroke="#ddd"/>
  <text x="290" y="183" text-anchor="middle" font-size="10" fill="#555">User Guide</text>

  <rect x="340" y="165" width="70" height="28" rx="4" fill="#f5f5f5" stroke="#ddd"/>
  <text x="375" y="183" text-anchor="middle" font-size="10" fill="#555">Reference</text>

  <rect x="420" y="165" width="70" height="28" rx="4" fill="#f5f5f5" stroke="#ddd"/>
  <text x="455" y="183" text-anchor="middle" font-size="10" fill="#555">Notebooks</text>

  <rect x="500" y="165" width="75" height="28" rx="4" fill="#f5f5f5" stroke="#ddd"/>
  <text x="537" y="183" text-anchor="middle" font-size="10" fill="#555">Community</text>

  <rect x="585" y="165" width="60" height="28" rx="4" fill="#24292e" stroke="#24292e"/>
  <text x="615" y="183" text-anchor="middle" font-size="10" fill="#fff">GitHub</text>

  <!-- Research Dropdown -->
  <path d="M 110 193 L 110 215 L 60 215 L 60 270 L 230 270 L 230 215 L 110 215" fill="none" stroke="#E60000" stroke-dasharray="4"/>
  <rect x="60" y="215" width="170" height="55" rx="4" fill="#fff" stroke="#E60000" stroke-width="1"/>
  <text x="80" y="233" font-size="10" fill="#333">Dashboard</text>
  <text x="80" y="248" font-size="10" fill="#333">Benchmarks</text>
  <text x="80" y="263" font-size="10" fill="#333">Models</text>

  <!-- Pages Layer -->
  <rect x="50" y="285" width="710" height="260" rx="8" fill="url(#componentGrad)" stroke="#e0e0e0"/>
  <text x="70" y="305" font-size="11" font-weight="600" fill="#666">PAGES (docs/)</text>

  <!-- Dashboard Page -->
  <rect x="70" y="315" width="210" height="110" rx="6" fill="#fff" stroke="#008080" stroke-width="2"/>
  <text x="85" y="335" font-size="11" font-weight="600" fill="#008080">dashboard.md</text>
  <rect x="85" y="345" width="180" height="70" rx="4" fill="#e0f2f1"/>
  <text x="95" y="362" font-size="9" fill="#00695c">&lt;TelcoCapabilityIndex /&gt;</text>
  <circle cx="115" cy="385" r="6" fill="#4DB6AC"/>
  <circle cx="135" cy="395" r="5" fill="#F48FB1"/>
  <circle cx="155" cy="378" r="7" fill="#B39DDB"/>
  <circle cx="180" cy="390" r="4" fill="#81C784"/>
  <circle cx="200" cy="382" r="6" fill="#FF8A65"/>
  <text x="230" y="405" font-size="8" fill="#666">Scatter</text>

  <!-- Benchmarks Page -->
  <rect x="295" y="315" width="210" height="110" rx="6" fill="#fff" stroke="#008080" stroke-width="2"/>
  <text x="310" y="335" font-size="11" font-weight="600" fill="#008080">benchmarks.md</text>
  <rect x="310" y="345" width="85" height="30" rx="3" fill="#fff" stroke="#ddd"/>
  <text x="352" y="363" text-anchor="middle" font-size="8" fill="#333">TeleQnA</text>
  <rect x="400" y="345" width="85" height="30" rx="3" fill="#fff" stroke="#ddd"/>
  <text x="442" y="363" text-anchor="middle" font-size="8" fill="#333">TeleLogs</text>
  <rect x="310" y="380" width="85" height="30" rx="3" fill="#fff" stroke="#ddd"/>
  <text x="352" y="398" text-anchor="middle" font-size="8" fill="#333">TeleMath</text>
  <rect x="400" y="380" width="85" height="30" rx="3" fill="#fff" stroke="#ddd"/>
  <text x="442" y="398" text-anchor="middle" font-size="8" fill="#333">3GPP-TSG</text>
  <text x="310" y="420" font-size="8" fill="#888">&lt;BenchmarkCard /&gt; x5</text>

  <!-- Models Page -->
  <rect x="520" y="315" width="220" height="110" rx="6" fill="#fff" stroke="#008080" stroke-width="2"/>
  <text x="535" y="335" font-size="11" font-weight="600" fill="#008080">models.md</text>
  <rect x="535" y="345" width="120" height="18" rx="3" fill="#f5f5f5" stroke="#ddd"/>
  <text x="545" y="357" font-size="8" fill="#999">Search models...</text>
  <rect x="660" y="345" width="65" height="18" rx="3" fill="#f5f5f5" stroke="#ddd"/>
  <text x="692" y="357" text-anchor="middle" font-size="8" fill="#555">Sort: TCI</text>
  <rect x="535" y="370" width="190" height="20" rx="2" fill="#fff" stroke="#eee"/>
  <circle cx="548" cy="380" r="6" fill="#4DB6AC"/>
  <text x="560" y="383" font-size="8" fill="#333">GPT-5</text>
  <circle cx="700" cy="380" r="10" fill="#4DB6AC"/>
  <text x="700" y="383" text-anchor="middle" font-size="7" fill="#fff">138</text>
  <rect x="535" y="393" width="190" height="20" rx="2" fill="#fff" stroke="#eee"/>
  <circle cx="548" cy="403" r="6" fill="#B39DDB"/>
  <text x="560" y="406" font-size="8" fill="#333">Claude-4.5</text>
  <circle cx="700" cy="403" r="10" fill="#81C784"/>
  <text x="700" y="406" text-anchor="middle" font-size="7" fill="#fff">135</text>
  <text x="535" y="423" font-size="8" fill="#888">&lt;ModelsPage /&gt;</text>

  <!-- Docs Pages -->
  <rect x="70" y="435" width="220" height="100" rx="6" fill="#fff" stroke="#ddd"/>
  <text x="85" y="455" font-size="11" font-weight="600" fill="#555">Documentation Pages</text>
  <text x="85" y="475" font-size="9" fill="#666">welcome.md</text>
  <text x="85" y="490" font-size="9" fill="#666">contributing.md</text>
  <text x="85" y="505" font-size="9" fill="#666">leaderboard.md</text>
  <text x="85" y="520" font-size="9" fill="#666">reference.md, community.md</text>

  <!-- Notebooks -->
  <rect x="305" y="435" width="200" height="100" rx="6" fill="#fff" stroke="#ddd"/>
  <text x="320" y="455" font-size="11" font-weight="600" fill="#555">notebooks/</text>
  <text x="320" y="475" font-size="9" fill="#666">how-to-use.md</text>
  <text x="320" y="490" font-size="9" fill="#666">implementing-evals.md</text>
  <text x="320" y="505" font-size="9" fill="#666">network-environments.md</text>

  <!-- Resources -->
  <rect x="520" y="435" width="220" height="100" rx="6" fill="#fff" stroke="#ddd"/>
  <text x="535" y="455" font-size="11" font-weight="600" fill="#555">resources/</text>
  <text x="535" y="475" font-size="9" fill="#666">datasets.md</text>
  <text x="535" y="490" font-size="9" fill="#666">agents.md</text>

  <!-- Components Layer -->
  <rect x="50" y="555" width="710" height="140" rx="8" fill="url(#componentGrad)" stroke="#e0e0e0"/>
  <text x="70" y="575" font-size="11" font-weight="600" fill="#666">REACT COMPONENTS (src/components/)</text>

  <!-- TelcoCapabilityIndex Component -->
  <rect x="70" y="590" width="200" height="95" rx="6" fill="#fff" stroke="#B39DDB" stroke-width="2"/>
  <text x="85" y="610" font-size="10" font-weight="600" fill="#7B1FA2">TelcoCapabilityIndex.tsx</text>
  <text x="85" y="625" font-size="8" fill="#666">ScatterChart (Recharts)</text>
  <text x="85" y="640" font-size="8" fill="#666">parseCSV()</text>
  <text x="85" y="655" font-size="8" fill="#666">calculateTCI() - IRT model</text>
  <text x="85" y="670" font-size="8" fill="#666">CustomTooltip, Legend</text>

  <!-- ModelsPage Component -->
  <rect x="285" y="590" width="200" height="95" rx="6" fill="#fff" stroke="#4DB6AC" stroke-width="2"/>
  <text x="300" y="610" font-size="10" font-weight="600" fill="#00796B">ModelsPage.tsx</text>
  <text x="300" y="625" font-size="8" fill="#666">useState (search, sort, filter)</text>
  <text x="300" y="640" font-size="8" fill="#666">parseCSV()</text>
  <text x="300" y="655" font-size="8" fill="#666">calculateTCI()</text>
  <text x="300" y="670" font-size="8" fill="#666">Filterable model list</text>

  <!-- BenchmarkCard Component -->
  <rect x="500" y="590" width="200" height="95" rx="6" fill="#fff" stroke="#FF8A65" stroke-width="2"/>
  <text x="515" y="610" font-size="10" font-weight="600" fill="#E64A19">BenchmarkCard.tsx</text>
  <text x="515" y="625" font-size="8" fill="#666">Props: title, description</text>
  <text x="515" y="640" font-size="8" fill="#666">Props: paperLink, datasetLink</text>
  <text x="515" y="655" font-size="8" fill="#666">Hover effects</text>
  <text x="515" y="670" font-size="8" fill="#666">Responsive card layout</text>

  <!-- Styling Layer -->
  <rect x="50" y="705" width="710" height="70" rx="8" fill="url(#componentGrad)" stroke="#e0e0e0"/>
  <text x="70" y="725" font-size="11" font-weight="600" fill="#666">STYLING (src/css/custom.css)</text>

  <rect x="70" y="735" width="100" height="28" rx="4" fill="#E60000" opacity="0.1"/>
  <text x="120" y="753" text-anchor="middle" font-size="9" fill="#E60000">Brand: #E60000</text>

  <rect x="180" y="735" width="110" height="28" rx="4" fill="#f5f5f5"/>
  <text x="235" y="753" text-anchor="middle" font-size="9" fill="#555">.research-tabs</text>

  <rect x="300" y="735" width="110" height="28" rx="4" fill="#f5f5f5"/>
  <text x="355" y="753" text-anchor="middle" font-size="9" fill="#555">.benchmark-grid</text>

  <rect x="420" y="735" width="130" height="28" rx="4" fill="#f5f5f5"/>
  <text x="485" y="753" text-anchor="middle" font-size="9" fill="#555">Infima Variables</text>

  <rect x="560" y="735" width="90" height="28" rx="4" fill="#f5f5f5"/>
  <text x="605" y="753" text-anchor="middle" font-size="9" fill="#555">Responsive</text>

  <!-- Sidebar -->
  <rect x="50" y="785" width="710" height="60" rx="8" fill="url(#componentGrad)" stroke="#e0e0e0"/>
  <text x="70" y="805" font-size="11" font-weight="600" fill="#666">SIDEBAR NAVIGATION (sidebars.ts)</text>
  <text x="70" y="828" font-size="9" fill="#555">Open Telco &gt; welcome, contributing</text>
  <text x="280" y="828" font-size="9" fill="#555">Notebooks &amp; Guides &gt; how-to-use...</text>
  <text x="510" y="828" font-size="9" fill="#555">Resources &gt; datasets, agents</text>

  <!-- BACKEND / DATA SECTION -->
  <rect x="800" y="80" width="370" height="420" rx="12" fill="#fff" stroke="#e0e0e0" stroke-width="1" filter="url(#shadow)"/>
  <rect x="800" y="80" width="370" height="40" rx="12" fill="#24292e"/>
  <rect x="800" y="108" width="370" height="12" fill="#24292e"/>
  <text x="825" y="106" font-size="14" font-weight="600" fill="#fff">DATA &amp; STATIC ASSETS</text>

  <!-- CSV Data -->
  <rect x="820" y="135" width="330" height="140" rx="8" fill="#f6f8fa" stroke="#e0e0e0"/>
  <text x="840" y="155" font-size="11" font-weight="600" fill="#24292e">/static/data/telecom-llm-leaderboard.csv</text>

  <rect x="840" y="168" width="290" height="95" rx="4" fill="#fff" stroke="#ddd" font-family="monospace"/>
  <text x="850" y="185" font-size="8" fill="#666" font-family="monospace">rank,provider,model,mean,teleqna,...</text>
  <text x="850" y="200" font-size="8" fill="#333" font-family="monospace">1,OpenAI,GPT-5,89.2,92.5 (raw),...</text>
  <text x="850" y="215" font-size="8" fill="#333" font-family="monospace">2,Anthropic,Claude-4.5,87.8,...</text>
  <text x="850" y="230" font-size="8" fill="#333" font-family="monospace">3,Google,Gemini-2.5,86.5,...</text>
  <text x="850" y="245" font-size="8" fill="#999" font-family="monospace">... (23+ models)</text>

  <!-- Static Assets -->
  <rect x="820" y="290" width="330" height="100" rx="8" fill="#f6f8fa" stroke="#e0e0e0"/>
  <text x="840" y="310" font-size="11" font-weight="600" fill="#24292e">/static/img/</text>
  <text x="840" y="330" font-size="9" fill="#666">favicon.ico</text>
  <text x="840" y="345" font-size="9" fill="#666">open-telco-social-card.jpg</text>
  <text x="840" y="360" font-size="9" fill="#666">architecture-diagram.svg</text>
  <text x="840" y="375" font-size="9" fill="#666">logo.png (if applicable)</text>

  <!-- Config Files -->
  <rect x="820" y="400" width="330" height="85" rx="8" fill="#f6f8fa" stroke="#e0e0e0"/>
  <text x="840" y="420" font-size="11" font-weight="600" fill="#24292e">Configuration Files</text>
  <text x="840" y="440" font-size="9" fill="#666">docusaurus.config.ts - Main config</text>
  <text x="840" y="455" font-size="9" fill="#666">sidebars.ts - Sidebar structure</text>
  <text x="840" y="470" font-size="9" fill="#666">package.json - Dependencies</text>

  <!-- BUILD SECTION -->
  <rect x="800" y="515" width="370" height="200" rx="12" fill="#fff" stroke="#e0e0e0" stroke-width="1" filter="url(#shadow)"/>
  <rect x="800" y="515" width="370" height="40" rx="12" fill="#4DB6AC"/>
  <rect x="800" y="543" width="370" height="12" fill="#4DB6AC"/>
  <text x="825" y="541" font-size="14" font-weight="600" fill="#fff">BUILD &amp; DEPLOYMENT</text>

  <!-- Build Pipeline -->
  <rect x="820" y="570" width="85" height="50" rx="6" fill="#fff" stroke="#ddd"/>
  <text x="862" y="592" text-anchor="middle" font-size="9" font-weight="600" fill="#333">Source</text>
  <text x="862" y="607" text-anchor="middle" font-size="8" fill="#666">.md + .tsx</text>

  <path d="M 910 595 L 935 595" stroke="#666" stroke-width="2" marker-end="url(#arrowhead)"/>

  <rect x="940" y="570" width="85" height="50" rx="6" fill="#fff" stroke="#ddd"/>
  <text x="982" y="592" text-anchor="middle" font-size="9" font-weight="600" fill="#333">Docusaurus</text>
  <text x="982" y="607" text-anchor="middle" font-size="8" fill="#666">Webpack</text>

  <path d="M 1030 595 L 1055 595" stroke="#666" stroke-width="2" marker-end="url(#arrowhead)"/>

  <rect x="1060" y="570" width="85" height="50" rx="6" fill="#fff" stroke="#ddd"/>
  <text x="1102" y="592" text-anchor="middle" font-size="9" font-weight="600" fill="#333">/build/</text>
  <text x="1102" y="607" text-anchor="middle" font-size="8" fill="#666">Static</text>

  <!-- Deployment -->
  <path d="M 1102 625 L 1102 650" stroke="#666" stroke-width="2" marker-end="url(#arrowhead)"/>

  <rect x="820" y="655" width="330" height="45" rx="6" fill="#24292e"/>
  <text x="985" y="678" text-anchor="middle" font-size="11" font-weight="600" fill="#fff">GitHub Pages</text>
  <text x="985" y="693" text-anchor="middle" font-size="9" fill="#aaa">gsma-research.github.io/open_telco</text>

  <!-- Data Flow Arrows -->
  <defs>
    <marker id="arrowBlue" markerWidth="10" markerHeight="7" refX="9" refY="3.5" orient="auto">
      <polygon points="0 0, 10 3.5, 0 7" fill="#2196F3"/>
    </marker>
  </defs>

  <!-- CSV to Components Arrow -->
  <path d="M 800 200 C 785 200 785 380 785 640 L 270 640" stroke="#2196F3" stroke-width="2" fill="none" stroke-dasharray="5" marker-end="url(#arrowBlue)"/>
  <text x="790" y="420" font-size="9" fill="#2196F3" transform="rotate(-90 790 420)">fetch() CSV data</text>

  <!-- TCI Calculation Flow -->
  <rect x="800" y="735" width="370" height="120" rx="12" fill="#fff" stroke="#e0e0e0" filter="url(#shadow)"/>
  <text x="825" y="760" font-size="12" font-weight="600" fill="#333">TCI Calculation (IRT-inspired)</text>

  <text x="825" y="785" font-size="9" fill="#666" font-family="monospace">P(score | theta, beta, alpha) = sigma(alpha(theta - beta))</text>

  <rect x="825" y="800" width="75" height="40" rx="4" fill="#e8f5e9" stroke="#4CAF50"/>
  <text x="862" y="818" text-anchor="middle" font-size="8" font-weight="600" fill="#2E7D32">TeleQnA</text>
  <text x="862" y="832" text-anchor="middle" font-size="7" fill="#666">diff: 0.7</text>

  <rect x="910" y="800" width="75" height="40" rx="4" fill="#ffebee" stroke="#f44336"/>
  <text x="947" y="818" text-anchor="middle" font-size="8" font-weight="600" fill="#c62828">TeleLogs</text>
  <text x="947" y="832" text-anchor="middle" font-size="7" fill="#666">diff: 0.3</text>

  <rect x="995" y="800" width="75" height="40" rx="4" fill="#fff3e0" stroke="#ff9800"/>
  <text x="1032" y="818" text-anchor="middle" font-size="8" font-weight="600" fill="#e65100">TeleMath</text>
  <text x="1032" y="832" text-anchor="middle" font-size="7" fill="#666">diff: 0.4</text>

  <rect x="1080" y="800" width="75" height="40" rx="4" fill="#e3f2fd" stroke="#2196F3"/>
  <text x="1117" y="818" text-anchor="middle" font-size="8" font-weight="600" fill="#1565c0">3GPP-TSG</text>
  <text x="1117" y="832" text-anchor="middle" font-size="7" fill="#666">diff: 0.4</text>

  <!-- Legend -->
  <rect x="30" y="870" width="1140" height="25" rx="4" fill="#f5f5f5"/>
  <circle cx="60" cy="882" r="6" fill="#E60000"/>
  <text x="75" y="886" font-size="9" fill="#666">GSMA Branding</text>
  <circle cx="180" cy="882" r="6" fill="#008080"/>
  <text x="195" y="886" font-size="9" fill="#666">Research Section</text>
  <circle cx="310" cy="882" r="6" fill="#B39DDB"/>
  <text x="325" y="886" font-size="9" fill="#666">TCI Component</text>
  <circle cx="440" cy="882" r="6" fill="#4DB6AC"/>
  <text x="455" y="886" font-size="9" fill="#666">Models Component</text>
  <circle cx="580" cy="882" r="6" fill="#FF8A65"/>
  <text x="595" y="886" font-size="9" fill="#666">Benchmark Cards</text>
  <circle cx="720" cy="882" r="6" fill="#24292e"/>
  <text x="735" y="886" font-size="9" fill="#666">GitHub/Data</text>
  <text x="1100" y="886" font-size="8" fill="#999">v1.0 - 2026</text>
</svg>
